<?xml version="1.0" encoding="UTF-8"?>
<svg width="31px" height="30px" viewBox="0 0 31 30" version="1.1" xmlns="http://www.w3.org/2000/svg" xmlns:xlink="http://www.w3.org/1999/xlink">
    <!-- Generator: Sketch 43.1 (39012) - http://www.bohemiancoding.com/sketch -->
    <title>github</title>
    <desc>Created with Sketch.</desc>
    <defs></defs>
    <g id="Welcome" stroke="none" stroke-width="1" fill="none" fill-rule="evenodd">
        <g id="Desktop" transform="translate(-426.000000, -646.000000)" fill-rule="nonzero" fill="#004358">
            <g id="Group-5" transform="translate(426.000000, 646.000000)">
                <g id="Group-4">
                    <g id="github">
                        <path d="M28.6106294,7.66244755 C27.2394406,5.31307692 25.3795105,3.45307692 23.0303497,2.08202797 C20.6808392,0.710909091 18.1158741,0.0255244755 15.3336364,0.0255244755 C12.5517483,0.0255244755 9.98594406,0.711118881 7.63692308,2.08202797 C5.28755245,3.45300699 3.42769231,5.31307692 2.0565035,7.66244755 C0.685524476,10.0117483 0,12.5772028 0,15.3587413 C0,18.7 0.974825175,21.7045455 2.92496503,24.3731469 C4.8748951,27.041958 7.39391608,28.8886713 10.4818182,29.9134965 C10.8412587,29.9802098 11.1073427,29.9332867 11.2803497,29.7739161 C11.4534266,29.6143357 11.5398601,29.4144755 11.5398601,29.1751748 C11.5398601,29.1352448 11.5364336,28.776014 11.5297902,28.0970629 C11.5229371,27.4181119 11.5197203,26.8258042 11.5197203,26.3204196 L11.0604895,26.3998601 C10.7676923,26.4534965 10.3983217,26.4762238 9.95237762,26.4697902 C9.50664336,26.4635664 9.04391608,26.4168531 8.56482517,26.33 C8.08552448,26.2439161 7.63972028,26.0442657 7.22706294,25.7314685 C6.81461538,25.4186713 6.52181818,25.0092308 6.34874126,24.5037762 L6.14909091,24.0443357 C6.01601399,23.7384615 5.8065035,23.3986713 5.52027972,23.0262238 C5.23405594,22.6534266 4.94461538,22.4006993 4.65181818,22.2676224 L4.51202797,22.1675524 C4.41888112,22.101049 4.33244755,22.0208392 4.25251748,21.9277622 C4.17265734,21.8346853 4.11286713,21.7415385 4.07293706,21.6482517 C4.03293706,21.5548951 4.06608392,21.4783217 4.17272727,21.4182517 C4.27937063,21.3581818 4.4720979,21.329021 4.75174825,21.329021 L5.15090909,21.3886713 C5.41713287,21.442028 5.74643357,21.6013986 6.13923077,21.8677622 C6.53181818,22.1339161 6.85454545,22.4799301 7.10748252,22.9056643 C7.41377622,23.4515385 7.7827972,23.8674825 8.21559441,24.1537063 C8.64804196,24.4399301 9.08405594,24.5827972 9.52321678,24.5827972 C9.96237762,24.5827972 10.3416783,24.5495105 10.6612587,24.4832867 C10.9804895,24.4167133 11.28,24.3166434 11.5596503,24.1836364 C11.6794406,23.2914685 12.0055944,22.6060839 12.5378322,22.126993 C11.7792308,22.0472727 11.0972028,21.9272028 10.4913986,21.7675524 C9.88594406,21.6076923 9.26027972,21.3482517 8.61482517,20.9885315 C7.96902098,20.6293007 7.43328671,20.1832168 7.00748252,19.651049 C6.58160839,19.1186014 6.2320979,18.4195804 5.95944056,17.5546154 C5.68664336,16.6893007 5.55020979,15.6911189 5.55020979,14.5597902 C5.55020979,12.948951 6.07608392,11.5781818 7.12762238,10.4467133 C6.63503497,9.23566434 6.68153846,7.87804196 7.26727273,6.37398601 C7.65328671,6.25405594 8.22573427,6.34405594 8.98433566,6.64342657 C9.74307692,6.94293706 10.2986014,7.19951049 10.6514685,7.41223776 C11.0043357,7.6248951 11.2870629,7.8051049 11.5000699,7.95125874 C12.7381818,7.60531469 14.0158741,7.43230769 15.3334965,7.43230769 C16.6511189,7.43230769 17.9290909,7.60531469 19.1672727,7.95125874 L19.9259441,7.47230769 C20.4447552,7.15272727 21.0574126,6.85986014 21.7624476,6.59363636 C22.4679021,6.32755245 23.0073427,6.25426573 23.3802098,6.3741958 C23.978951,7.87832168 24.0323077,9.23587413 23.5395804,10.4469231 C24.591049,11.5783916 25.1171329,12.9495105 25.1171329,14.56 C25.1171329,15.6913287 24.9802098,16.6926573 24.7078322,17.5646154 C24.4351049,18.4367133 24.0825874,19.135035 23.6501399,19.661049 C23.2172028,20.186993 22.678042,20.6295804 22.0325874,20.9887413 C21.386993,21.3481818 20.7611189,21.6076224 20.1556643,21.7674825 C19.5499301,21.9273427 18.8679021,22.0474825 18.1093007,22.1273427 C18.8011888,22.7260839 19.1472028,23.6711888 19.1472028,24.9622378 L19.1472028,29.1746154 C19.1472028,29.4139161 19.2304196,29.6137063 19.396993,29.7733566 C19.5633566,29.9327273 19.8260839,29.9796503 20.1855245,29.9128671 C23.2738462,28.8881818 25.7928671,27.0413986 27.7427273,24.3725874 C29.6923776,21.703986 30.6675524,18.6994406 30.6675524,15.3581818 C30.6668531,12.576993 29.980979,10.0117483 28.6106294,7.66244755 Z" id="Shape"></path>
                    </g>
                </g>
            </g>
        </g>
    </g>
</svg>