<?xml version="1.0" encoding="UTF-8"?>
<svg width="37px" height="30px" viewBox="0 0 37 30" version="1.1" xmlns="http://www.w3.org/2000/svg" xmlns:xlink="http://www.w3.org/1999/xlink">
    <!-- Generator: Sketch 43.1 (39012) - http://www.bohemiancoding.com/sketch -->
    <title>twitter</title>
    <desc>Created with Sketch.</desc>
    <defs></defs>
    <g id="Welcome" stroke="none" stroke-width="1" fill="none" fill-rule="evenodd">
        <g id="Desktop" transform="translate(-494.000000, -646.000000)" fill-rule="nonzero" fill="#004358">
            <g id="Group-5" transform="translate(426.000000, 646.000000)">
                <g id="Group-4">
                    <g id="twitter" transform="translate(68.000000, 0.000000)">
                        <path d="M37,3.56975904 C35.6381944,4.1710241 34.1769967,4.57879518 32.6417386,4.76084337 C34.2093415,3.82548193 35.4093023,2.34186747 35.9780261,0.579457831 C34.5075784,1.44566265 32.8844755,2.07463855 31.1550278,2.41560241 C29.7701275,0.943493976 27.8002402,0.0265662651 25.6153056,0.0265662651 C21.4235441,0.0265662651 18.0248039,3.41313253 18.0248039,7.58759036 C18.0248039,8.17963855 18.0918513,8.75789157 18.2213513,9.31084337 C11.9140605,8.99518072 6.32119608,5.98415663 2.57796895,1.40879518 C1.92363725,2.52385542 1.55140033,3.82313253 1.55140033,5.21006024 C1.55140033,7.83409639 2.8924085,10.1493976 4.92704575,11.5039759 C3.68313235,11.4625301 2.51321895,11.1215663 1.48900817,10.5548193 L1.48900817,10.6492771 C1.48900817,14.3122892 4.10627451,17.3693976 7.57665686,18.0651807 C6.94082516,18.2356627 6.27035131,18.3301205 5.57672222,18.3301205 C5.08659314,18.3301205 4.61260621,18.281747 4.14786928,18.1895783 C5.11428268,21.1960241 7.91654902,23.3822892 11.2366944,23.4422289 C8.64022549,25.4695783 5.36633007,26.6744578 1.81040033,26.6744578 C1.19772386,26.6744578 0.594236928,26.6375904 6.04575166e-05,26.5707831 C3.35950327,28.720241 7.34782516,29.973494 11.634384,29.973494 C25.5969265,29.973494 33.2290833,18.4499398 33.2290833,8.45614458 L33.2036307,7.47704819 C34.6948758,6.41722892 35.9849788,5.08566265 37,3.56975904 Z" id="Shape"></path>
                    </g>
                </g>
            </g>
        </g>
    </g>
</svg>